<?xml version="1.0" standalone="no"?>
<!DOCTYPE svg PUBLIC "-//W3C//DTD SVG 20010904//EN"
 "http://www.w3.org/TR/2001/REC-SVG-20010904/DTD/svg10.dtd">
<svg version="1.0" xmlns="http://www.w3.org/2000/svg"
 width="191.000000pt" height="191.000000pt" viewBox="0 0 191.000000 191.000000"
 preserveAspectRatio="xMidYMid meet">
<metadata>
Created by potrace 1.14, written by Peter Selinger 2001-2017
</metadata>
<g transform="translate(0.000000,191.000000) scale(0.100000,-0.100000)"
fill="#000000" stroke="none">
<path d="M257 1119 c4 -13 8 -18 11 -10 2 7 -1 18 -6 23 -8 8 -9 4 -5 -13z"/>
<path d="M300 1114 c0 -14 -4 -23 -9 -19 -5 3 -12 1 -16 -5 -3 -5 2 -10 12
-10 15 0 18 -9 18 -65 0 -60 -1 -64 -20 -59 -30 9 -37 19 -46 61 l-7 38 1 -40
c2 -33 7 -43 34 -60 17 -11 33 -29 35 -40 3 -18 12 -20 91 -23 85 -3 87 -2 87
20 0 22 -3 23 -65 20 -56 -2 -65 0 -66 15 0 10 -1 57 -1 106 -1 84 -2 87 -25
87 -18 0 -23 -5 -23 -26z"/>
<path d="M388 1121 c-20 -29 -14 -142 9 -158 23 -17 48 -16 67 3 21 21 22 139
2 160 -21 20 -62 17 -78 -5z m52 -76 c0 -30 -4 -55 -10 -55 -5 0 -10 25 -10
55 0 30 5 55 10 55 6 0 10 -25 10 -55z"/>
<path d="M523 1019 c27 -106 46 -144 63 -127 2 3 20 60 38 127 33 120 33 121
12 121 -19 0 -25 -11 -41 -75 -10 -41 -20 -73 -23 -71 -2 3 -12 35 -21 73 -14
55 -21 69 -38 71 -21 3 -21 1 10 -119z"/>
<path d="M670 1015 l0 -125 58 0 c51 0 58 2 58 20 0 17 -7 20 -39 20 -37 0
-38 1 -35 33 2 25 8 32 26 33 29 2 34 7 26 28 -4 10 -15 16 -28 14 -17 -2 -22
3 -24 30 -3 30 -2 32 31 32 26 0 36 5 40 20 5 18 0 20 -54 20 l-59 0 0 -125z"/>
<path d="M877 1120 c3 -11 14 -20 24 -20 17 0 19 -9 19 -105 0 -98 1 -105 20
-105 19 0 20 7 20 105 0 98 1 105 20 105 13 0 20 7 20 20 0 18 -7 20 -64 20
-59 0 -64 -2 -59 -20z"/>
<path d="M1015 1018 c0 -117 1 -123 21 -126 20 -3 21 1 20 47 -1 59 8 65 24
16 17 -51 43 -65 123 -65 65 0 68 1 65 22 -3 21 -8 22 -66 20 -62 -2 -62 -2
-79 33 -15 32 -15 36 0 53 21 23 22 71 1 100 -12 17 -25 22 -62 22 l-48 0 1
-122z m83 49 c3 -23 0 -27 -21 -27 -19 0 -23 5 -21 23 1 12 3 26 3 30 2 22 36
-1 39 -26z"/>
<path d="M1175 1083 c-9 -32 -20 -71 -26 -87 -15 -48 6 -61 43 -24 l22 22 9
-22 c6 -12 19 -22 29 -22 22 0 20 16 -14 128 -24 79 -42 81 -63 5z m32 -55
c-3 -8 -6 -5 -6 6 -1 11 2 17 5 13 3 -3 4 -12 1 -19z"/>
<path d="M1264 1118 c3 -13 18 -69 32 -125 20 -79 30 -103 43 -103 16 0 27 34
77 228 5 17 2 22 -14 22 -21 0 -28 -16 -47 -107 -8 -40 -21 -43 -28 -5 -17 91
-26 112 -49 112 -16 0 -19 -4 -14 -22z"/>
<path d="M1439 1098 c-1 -53 -1 -178 0 -195 1 -9 19 -13 56 -13 48 0 55 2 55
20 0 16 -7 20 -35 20 -33 0 -35 2 -35 36 0 24 4 34 13 31 6 -2 20 0 29 5 23
11 11 40 -16 36 -17 -2 -22 3 -24 30 -3 31 -2 32 32 32 29 0 36 4 36 20 0 18
-7 20 -55 20 l-55 0 -1 -42z"/>
<path d="M1574 1018 l1 -123 53 -3 c46 -3 52 -1 52 17 0 15 -8 20 -32 23 l-33
3 -1 100 c-1 92 -2 100 -21 103 -18 3 -19 -3 -19 -120z"/>
<path d="M190 1060 c20 -13 33 -13 25 0 -3 6 -14 10 -23 10 -15 0 -15 -2 -2
-10z"/>
<path d="M198 1013 c7 -3 16 -2 19 1 4 3 -2 6 -13 5 -11 0 -14 -3 -6 -6z"/>
<path d="M194 975 c-18 -14 -18 -14 4 -8 12 3 22 9 22 14 0 12 -3 11 -26 -6z"/>
<path d="M225 950 c-3 -5 -1 -10 4 -10 6 0 11 5 11 10 0 6 -2 10 -4 10 -3 0
-8 -4 -11 -10z"/>
<path d="M261 933 c-1 -6 -4 -20 -7 -30 -5 -17 -5 -17 6 0 6 10 9 23 6 30 -3
9 -5 9 -5 0z"/>
<path d="M1425 850 c-3 -5 -1 -10 4 -10 6 0 11 5 11 10 0 6 -2 10 -4 10 -3 0
-8 -4 -11 -10z"/>
<path d="M397 843 c-2 -5 0 -21 4 -38 7 -29 7 -29 8 8 1 35 -3 46 -12 30z"/>
<path d="M491 841 c-12 -8 -10 -45 3 -58 4 -5 7 -3 6 2 -5 23 1 28 13 12 11
-15 12 -14 13 12 1 31 -14 45 -35 32z m24 -11 c3 -5 -1 -10 -10 -10 -9 0 -13
5 -10 10 3 6 8 10 10 10 2 0 7 -4 10 -10z"/>
<path d="M797 843 c-10 -17 -1 -57 13 -60 12 -4 12 -3 1 5 -11 8 -10 12 5 21
17 9 17 10 2 11 -10 0 -18 4 -18 9 0 5 8 12 18 14 15 4 15 5 0 6 -9 0 -19 -2
-21 -6z"/>
<path d="M891 818 c-1 -33 2 -38 21 -38 19 0 20 1 6 13 -9 6 -19 23 -21 37 -3
18 -5 14 -6 -12z"/>
<path d="M1061 827 c-16 -41 -12 -57 5 -22 11 22 14 24 10 8 -2 -13 0 -26 5
-29 12 -7 11 37 -1 56 -7 11 -11 9 -19 -13z"/>
<path d="M1160 834 c-11 -13 -10 -16 8 -21 12 -3 19 -9 16 -14 -3 -5 -10 -7
-15 -4 -5 4 -9 1 -9 -5 0 -15 32 -8 38 8 2 7 -5 16 -17 19 -11 3 -18 9 -15 14
3 5 10 6 16 3 7 -4 8 -2 4 4 -9 15 -11 15 -26 -4z"/>
<path d="M1259 835 c-8 -31 1 -55 19 -55 15 0 15 2 2 10 -13 9 -13 11 0 20 9
6 10 10 3 10 -6 0 -13 8 -15 18 -3 15 -4 14 -9 -3z"/>
<path d="M1388 826 c-3 -14 -1 -31 3 -38 6 -8 9 1 9 25 0 42 -6 48 -12 13z"/>
<path d="M1471 841 c-19 -12 -6 -61 16 -61 15 0 15 2 -2 14 -20 14 -14 53 6
40 8 -4 9 -3 5 4 -8 14 -7 14 -25 3z"/>
<path d="M1590 837 c0 -9 -4 -17 -10 -17 -5 0 -10 5 -10 10 0 6 -4 10 -10 10
-5 0 -7 -7 -4 -15 4 -8 13 -15 20 -15 16 0 30 27 20 37 -3 4 -6 -1 -6 -10z"/>
<path d="M590 819 c-6 -11 -9 -25 -6 -32 3 -9 5 -8 5 1 1 10 6 10 21 2 21 -11
23 -8 14 28 -8 28 -20 28 -34 1z m24 -4 c3 -8 1 -15 -4 -15 -6 0 -10 7 -10 15
0 8 2 15 4 15 2 0 6 -7 10 -15z"/>
<path d="M695 815 c7 -33 12 -41 21 -33 3 4 -2 19 -11 35 l-16 28 6 -30z"/>
<path d="M720 825 c0 -8 2 -15 4 -15 2 0 6 7 10 15 3 8 1 15 -4 15 -6 0 -10
-7 -10 -15z"/>
<path d="M1358 828 c-3 -7 -2 -22 2 -32 6 -18 7 -18 13 4 7 26 -7 51 -15 28z"/>
<path d="M1570 789 c0 -5 5 -7 10 -4 6 3 10 8 10 11 0 2 -4 4 -10 4 -5 0 -10
-5 -10 -11z"/>
<path d="M1665 780 c-3 -5 -1 -10 4 -10 6 0 11 5 11 10 0 6 -2 10 -4 10 -3 0
-8 -4 -11 -10z"/>
</g>
</svg>
