<svg width="11" height="15" viewBox="0 0 11 15" fill="none" xmlns="http://www.w3.org/2000/svg">
<path d="M4.70312 13.8564C0.710938 8.11426 0 7.5127 0 5.37988C0 2.48145 2.32422 0.129883 5.25 0.129883C8.14844 0.129883 10.5 2.48145 10.5 5.37988C10.5 7.5127 9.76172 8.11426 5.76953 13.8564C5.52344 14.2393 4.94922 14.2393 4.70312 13.8564ZM5.25 7.56738C6.45312 7.56738 7.4375 6.61035 7.4375 5.37988C7.4375 4.17676 6.45312 3.19238 5.25 3.19238C4.01953 3.19238 3.0625 4.17676 3.0625 5.37988C3.0625 6.61035 4.01953 7.56738 5.25 7.56738Z" fill="#6E6E6E"/>
</svg>
