<svg width="50" height="51" viewBox="0 0 50 51" fill="none" xmlns="http://www.w3.org/2000/svg">
<rect y="0.129883" width="50" height="50" rx="25" fill="#1BBC9B"/>
<path d="M25.175 13.1455C31.8645 13.1455 37.2844 18.5654 37.2844 25.2549C37.2844 31.9443 31.8645 37.3643 25.175 37.3643C18.4855 37.3643 13.0656 31.9443 13.0656 25.2549C13.0656 18.5654 18.4855 13.1455 25.175 13.1455ZM29.6672 28.4287C29.7648 28.3311 29.8625 28.1357 29.8625 27.9404C29.8625 27.6963 29.716 27.501 29.5695 27.3545L26.7375 25.2549V18.2236C26.7375 17.833 26.3469 17.4424 25.9563 17.4424H24.3938C23.9543 17.4424 23.6125 17.833 23.6125 18.2236V25.8408C23.6125 26.4756 23.8566 27.0127 24.3449 27.3545L27.6164 29.7959C27.7141 29.8936 27.9094 29.9912 28.0559 29.9912C28.3488 29.9912 28.5441 29.8447 28.6906 29.6494L29.6672 28.4287Z" fill="white"/>
</svg>
