<svg width="51" height="51" viewBox="0 0 51 51" fill="none" xmlns="http://www.w3.org/2000/svg">
<rect x="0.980469" y="0.129883" width="50" height="50" rx="25" fill="#1BBC9B"/>
<path d="M40.0877 32.4326C40.5271 33.458 39.7947 34.6299 38.7205 34.6299H29.1013L28.6131 29.8936C28.5642 29.5029 28.2224 29.1611 27.8318 29.1611H24.4627C24.072 29.1611 23.7303 29.5029 23.6814 29.8936L23.1931 34.6299H13.574C12.4998 34.6299 11.7674 33.458 12.2068 32.4326L19.0428 16.8076C19.2869 16.2705 19.824 15.8799 20.4099 15.8799H25.1463L25.0486 17.0518C24.9998 17.2471 25.1951 17.4424 25.4392 17.4424H26.8553C27.0994 17.4424 27.2947 17.2471 27.2459 17.0518L27.1482 15.8799H31.8845C32.4705 15.8799 33.0076 16.2705 33.2517 16.8076L40.0877 32.4326ZM24.8045 19.3955L24.5603 21.4951C24.5603 21.8369 24.8045 22.1299 25.1463 22.1299H27.1482C27.49 22.1299 27.7342 21.8369 27.7342 21.4951L27.49 19.3955C27.49 19.2002 27.2947 19.0049 27.0994 19.0049H25.1951V19.0537C24.9998 19.0537 24.8045 19.2002 24.8045 19.3955ZM27.49 27.5986C27.9783 27.5986 28.3201 27.208 28.2713 26.7686L28.0271 24.4248C27.9783 24.0342 27.6365 23.6924 27.2459 23.6924H25.0486C24.658 23.6924 24.3162 24.0342 24.2674 24.4248L24.0232 26.7686C23.9744 27.208 24.3162 27.5986 24.8045 27.5986H27.49Z" fill="white"/>
</svg>
