<svg width="51" height="51" viewBox="0 0 51 51" fill="none" xmlns="http://www.w3.org/2000/svg">
<rect x="0.96875" y="0.129883" width="50" height="50" rx="25" fill="#1BBC9B"/>
<path d="M22.6047 16.2705C22.6047 14.3662 24.1672 12.7549 26.1203 12.7549C28.0246 12.7549 29.6359 14.3662 29.6359 16.2705C29.6359 18.2236 28.0246 19.7861 26.1203 19.7861C24.1672 19.7861 22.6047 18.2236 22.6047 16.2705ZM35.007 16.3682C35.6418 16.9541 35.6418 17.9795 35.007 18.5654L30.4172 23.2041V36.1924C30.4172 37.0713 29.6848 37.7549 28.8547 37.7549H28.0734C27.1945 37.7549 26.5109 37.0713 26.5109 36.1924V30.7236H25.7297V36.1924C25.7297 37.0713 24.9973 37.7549 24.1672 37.7549H23.3859C22.507 37.7549 21.8234 37.0713 21.8234 36.1924V23.2041L17.1848 18.5654C16.55 17.9795 16.55 16.9541 17.1848 16.3682C17.7707 15.7334 18.7961 15.7334 19.382 16.3682L23.6301 20.5674H28.5617L32.8098 16.3682C33.3957 15.7334 34.4211 15.7334 35.007 16.3682Z" fill="white"/>
</svg>
