<svg width="27" height="36" viewBox="0 0 27 36" fill="none" xmlns="http://www.w3.org/2000/svg">
<path d="M12.2578 34.6621C2.27734 20.3066 0.5 18.8027 0.5 13.4707C0.5 6.22461 6.31055 0.345703 13.625 0.345703C20.8711 0.345703 26.75 6.22461 26.75 13.4707C26.75 18.8027 24.9043 20.3066 14.9238 34.6621C14.3086 35.6191 12.873 35.6191 12.2578 34.6621ZM13.625 18.9395C16.6328 18.9395 19.0938 16.5469 19.0938 13.4707C19.0938 10.4629 16.6328 8.00195 13.625 8.00195C10.5488 8.00195 8.15625 10.4629 8.15625 13.4707C8.15625 16.5469 10.5488 18.9395 13.625 18.9395Z" fill="#F3A46B"/>
</svg>
