<svg width="35" height="30" viewBox="0 0 35 30" fill="none" xmlns="http://www.w3.org/2000/svg">
<path d="M3.28125 0.626953C5.05859 0.626953 6.5625 2.13086 6.5625 3.9082C6.5625 5.75391 5.05859 7.18945 3.28125 7.18945C1.43555 7.18945 0 5.75391 0 3.9082C0 2.13086 1.43555 0.626953 3.28125 0.626953ZM3.28125 11.5645C5.05859 11.5645 6.5625 13.0684 6.5625 14.8457C6.5625 16.6914 5.05859 18.127 3.28125 18.127C1.43555 18.127 0 16.6914 0 14.8457C0 13.0684 1.43555 11.5645 3.28125 11.5645ZM3.28125 22.502C5.05859 22.502 6.5625 24.0059 6.5625 25.7832C6.5625 27.6289 5.05859 29.0645 3.28125 29.0645C1.43555 29.0645 0 27.6289 0 25.7832C0 24.0059 1.43555 22.502 3.28125 22.502ZM33.9062 23.5957C34.4531 23.5957 35 24.1426 35 24.6895V26.877C35 27.4922 34.4531 27.9707 33.9062 27.9707H12.0312C11.416 27.9707 10.9375 27.4922 10.9375 26.877V24.6895C10.9375 24.1426 11.416 23.5957 12.0312 23.5957H33.9062ZM33.9062 1.7207C34.4531 1.7207 35 2.26758 35 2.81445V5.00195C35 5.61719 34.4531 6.0957 33.9062 6.0957H12.0312C11.416 6.0957 10.9375 5.61719 10.9375 5.00195V2.81445C10.9375 2.26758 11.416 1.7207 12.0312 1.7207H33.9062ZM33.9062 12.6582C34.4531 12.6582 35 13.2051 35 13.752V15.9395C35 16.5547 34.4531 17.0332 33.9062 17.0332H12.0312C11.416 17.0332 10.9375 16.5547 10.9375 15.9395V13.752C10.9375 13.2051 11.416 12.6582 12.0312 12.6582H33.9062Z" fill="#F3A46B"/>
</svg>
