<svg width="36" height="36" viewBox="0 0 36 36" fill="none" xmlns="http://www.w3.org/2000/svg">
<path d="M34.5215 30.6289C35.1367 31.3125 35.1367 32.3379 34.4531 32.9531L32.5391 34.8672C31.9238 35.5508 30.8984 35.5508 30.2148 34.8672L23.4473 28.0996C23.1055 27.7578 22.9688 27.3477 22.9688 26.9375V25.7754C20.5078 27.6895 17.5 28.7832 14.2188 28.7832C6.35742 28.7832 0 22.4258 0 14.5645C0 6.77148 6.35742 0.345703 14.2188 0.345703C22.0117 0.345703 28.4375 6.77148 28.4375 14.5645C28.4375 17.9141 27.2754 20.9219 25.4297 23.3145H26.5234C26.9336 23.3145 27.3438 23.5195 27.6855 23.793L34.5215 30.6289ZM14.2188 23.3145C19.0039 23.3145 22.9688 19.418 22.9688 14.5645C22.9688 9.7793 19.0039 5.81445 14.2188 5.81445C9.36523 5.81445 5.46875 9.7793 5.46875 14.5645C5.46875 19.418 9.36523 23.3145 14.2188 23.3145Z" fill="#F3A46B"/>
</svg>
