<svg width="15" height="15" viewBox="0 0 15 15" fill="none" xmlns="http://www.w3.org/2000/svg">
<path d="M7.5 0.078125C11.5137 0.078125 14.7656 3.33008 14.7656 7.34375C14.7656 11.3574 11.5137 14.6094 7.5 14.6094C3.48633 14.6094 0.234375 11.3574 0.234375 7.34375C0.234375 3.33008 3.48633 0.078125 7.5 0.078125ZM10.1953 9.24805C10.2539 9.18945 10.3125 9.07227 10.3125 8.95508C10.3125 8.80859 10.2246 8.69141 10.1367 8.60352L8.4375 7.34375V3.125C8.4375 2.89062 8.20312 2.65625 7.96875 2.65625H7.03125C6.76758 2.65625 6.5625 2.89062 6.5625 3.125V7.69531C6.5625 8.07617 6.70898 8.39844 7.00195 8.60352L8.96484 10.0684C9.02344 10.127 9.14062 10.1855 9.22852 10.1855C9.4043 10.1855 9.52148 10.0977 9.60938 9.98047L10.1953 9.24805Z" fill="#1BBC9B"/>
</svg>
