<svg width="10" height="11" viewBox="0 0 10 11" fill="none" xmlns="http://www.w3.org/2000/svg">
<path d="M6.86719 5.12988L9.60156 7.8916C9.95703 8.21973 9.95703 8.7666 9.60156 9.09473L9 9.69629C8.67188 10.0518 8.125 10.0518 7.79688 9.69629L5.0625 6.96191L2.30078 9.69629C1.97266 10.0518 1.42578 10.0518 1.09766 9.69629L0.496094 9.09473C0.140625 8.7666 0.140625 8.21973 0.496094 7.8916L3.23047 5.12988L0.496094 2.39551C0.140625 2.06738 0.140625 1.52051 0.496094 1.19238L1.09766 0.59082C1.42578 0.235352 1.97266 0.235352 2.30078 0.59082L5.0625 3.3252L7.79688 0.59082C8.125 0.235352 8.67188 0.235352 9 0.59082L9.60156 1.19238C9.95703 1.52051 9.95703 2.06738 9.60156 2.39551L6.86719 5.12988Z" fill="black"/>
</svg>
