<svg width="26" height="20" viewBox="0 0 26 20" fill="none" xmlns="http://www.w3.org/2000/svg">
<path d="M24.843 6.95117C25.0383 6.80469 25.3313 6.95117 25.3313 7.19531V17.1562C25.3313 18.4746 24.257 19.5 22.9875 19.5H2.675C1.35664 19.5 0.33125 18.4746 0.33125 17.1562V7.19531C0.33125 6.95117 0.575391 6.80469 0.770703 6.95117C1.89375 7.83008 3.30977 8.9043 8.29023 12.5176C9.31563 13.25 11.0734 14.8613 12.8313 14.8613C14.5402 14.8613 16.3469 13.25 17.3234 12.5176C22.3039 8.9043 23.7199 7.83008 24.843 6.95117ZM12.8313 13.25C11.6594 13.2988 10.048 11.834 9.21797 11.248C2.72383 6.56055 2.23555 6.12109 0.770703 4.94922C0.477735 4.75391 0.33125 4.41211 0.33125 4.02148V3.09375C0.33125 1.82422 1.35664 0.75 2.675 0.75H22.9875C24.257 0.75 25.3313 1.82422 25.3313 3.09375V4.02148C25.3313 4.41211 25.1359 4.75391 24.843 4.94922C23.3781 6.12109 22.8898 6.56055 16.3957 11.248C15.5656 11.834 13.9543 13.2988 12.8313 13.25Z" fill="white"/>
</svg>
