<svg width="16" height="12" viewBox="0 0 16 12" fill="none" xmlns="http://www.w3.org/2000/svg">
<path d="M15.6484 4.43945C15.7656 4.35156 15.9414 4.43945 15.9414 4.58594V10.5625C15.9414 11.3535 15.2969 11.9688 14.5352 11.9688H2.34766C1.55664 11.9688 0.941406 11.3535 0.941406 10.5625V4.58594C0.941406 4.43945 1.08789 4.35156 1.20508 4.43945C1.87891 4.9668 2.72852 5.61133 5.7168 7.7793C6.33203 8.21875 7.38672 9.18555 8.44141 9.18555C9.4668 9.18555 10.5508 8.21875 11.1367 7.7793C14.125 5.61133 14.9746 4.9668 15.6484 4.43945ZM8.44141 8.21875C7.73828 8.24805 6.77148 7.36914 6.27344 7.01758C2.37695 4.20508 2.08398 3.94141 1.20508 3.23828C1.0293 3.12109 0.941406 2.91602 0.941406 2.68164V2.125C0.941406 1.36328 1.55664 0.71875 2.34766 0.71875H14.5352C15.2969 0.71875 15.9414 1.36328 15.9414 2.125V2.68164C15.9414 2.91602 15.8242 3.12109 15.6484 3.23828C14.7695 3.94141 14.4766 4.20508 10.5801 7.01758C10.082 7.36914 9.11523 8.24805 8.44141 8.21875Z" fill="#1BBC9B"/>
</svg>
