<svg width="12" height="16" viewBox="0 0 12 16" fill="none" xmlns="http://www.w3.org/2000/svg">
<path d="M5.03906 15.5508C0.761719 9.39844 0 8.75391 0 6.46875C0 3.36328 2.49023 0.84375 5.625 0.84375C8.73047 0.84375 11.25 3.36328 11.25 6.46875C11.25 8.75391 10.459 9.39844 6.18164 15.5508C5.91797 15.9609 5.30273 15.9609 5.03906 15.5508ZM5.625 8.8125C6.91406 8.8125 7.96875 7.78711 7.96875 6.46875C7.96875 5.17969 6.91406 4.125 5.625 4.125C4.30664 4.125 3.28125 5.17969 3.28125 6.46875C3.28125 7.78711 4.30664 8.8125 5.625 8.8125Z" fill="#1BBC9B"/>
</svg>
