<svg width="16" height="16" viewBox="0 0 16 16" fill="none" xmlns="http://www.w3.org/2000/svg">
<path d="M13.1289 10.2188C14.6523 10.2188 15.9414 11.5078 15.9414 13.0312C15.9414 14.584 14.6523 15.8438 13.1289 15.8438H4.98438C5.36523 15.375 5.89258 14.7012 6.36133 13.9688H13.1289C13.627 13.9688 14.0664 13.5586 14.0664 13.0312C14.0664 12.5332 13.627 12.0938 13.1289 12.0938H10.3164C8.76367 12.0938 7.50391 10.834 7.50391 9.28125C7.50391 7.75781 8.76367 6.46875 10.3164 6.46875H11.6348C10.9609 5.53125 10.3164 4.41797 10.3164 3.65625C10.3164 2.10352 11.5762 0.84375 13.1289 0.84375C14.6816 0.84375 15.9414 2.10352 15.9414 3.65625C15.9414 5.20898 13.1289 8.34375 13.1289 8.34375H10.3164C9.78906 8.34375 9.37891 8.7832 9.37891 9.28125C9.37891 9.80859 9.78906 10.2188 10.3164 10.2188H13.1289ZM13.1289 2.71875C12.6016 2.71875 12.1914 3.1582 12.1914 3.65625C12.1914 4.18359 12.6016 4.59375 13.1289 4.59375C13.627 4.59375 14.0664 4.18359 14.0664 3.65625C14.0664 3.1582 13.627 2.71875 13.1289 2.71875ZM3.75391 8.34375C5.30664 8.34375 6.56641 9.60352 6.56641 11.1562C6.56641 12.709 3.75391 15.8438 3.75391 15.8438C3.75391 15.8438 0.941406 12.709 0.941406 11.1562C0.941406 9.60352 2.20117 8.34375 3.75391 8.34375ZM3.75391 12.0938C4.25195 12.0938 4.69141 11.6836 4.69141 11.1562C4.69141 10.6582 4.25195 10.2188 3.75391 10.2188C3.22656 10.2188 2.81641 10.6582 2.81641 11.1562C2.81641 11.6836 3.22656 12.0938 3.75391 12.0938Z" fill="#1BBC9B"/>
</svg>
