<svg width="19" height="26" viewBox="0 0 19 26" fill="none" xmlns="http://www.w3.org/2000/svg">
<path d="M9.47216 17.8125C6.83544 17.8125 4.78466 15.7617 4.78466 13.125V5.3125C4.78466 2.72461 6.83544 0.625 9.47216 0.625C12.06 0.625 14.1597 2.72461 14.1597 5.3125V13.125C14.1597 15.7617 12.06 17.8125 9.47216 17.8125ZM17.2847 10C17.6753 10 18.0659 10.3906 18.0659 10.7812V13.125C18.0659 17.4707 14.7944 21.084 10.644 21.6699V23.2812H13.3784C13.769 23.2812 14.1597 23.6719 14.1597 24.0625V24.8438C14.1597 25.2832 13.769 25.625 13.3784 25.625H5.56591C5.12645 25.625 4.78466 25.2832 4.78466 24.8438V24.0625C4.78466 23.6719 5.12645 23.2812 5.56591 23.2812H8.30028V21.6211C3.95458 21.0352 0.878406 17.1289 0.878406 12.7832V10.7812C0.878406 10.3906 1.2202 10 1.65966 10H2.44091C2.83153 10 3.22216 10.3906 3.22216 10.7812V12.8809C3.22216 16.1523 5.56591 19.0332 8.83739 19.375C12.5483 19.7168 15.7222 16.7871 15.7222 13.125V10.7812C15.7222 10.3906 16.064 10 16.5034 10H17.2847Z" fill="white"/>
</svg>
