<svg width="18" height="17" viewBox="0 0 18 17" fill="none" xmlns="http://www.w3.org/2000/svg">
<path d="M0.866406 3.65625C0.514844 3.65625 0.241406 3.38281 0.241406 3.03125V1.46875C0.241406 1.15625 0.514844 0.84375 0.866406 0.84375H17.1164C17.4289 0.84375 17.7414 1.15625 17.7414 1.46875V3.03125C17.7414 3.38281 17.4289 3.65625 17.1164 3.65625H0.866406ZM0.866406 9.90625C0.514844 9.90625 0.241406 9.63281 0.241406 9.28125V7.71875C0.241406 7.40625 0.514844 7.09375 0.866406 7.09375H17.1164C17.4289 7.09375 17.7414 7.40625 17.7414 7.71875V9.28125C17.7414 9.63281 17.4289 9.90625 17.1164 9.90625H0.866406ZM0.866406 16.1562C0.514844 16.1562 0.241406 15.8828 0.241406 15.5312V13.9688C0.241406 13.6562 0.514844 13.3438 0.866406 13.3438H17.1164C17.4289 13.3438 17.7414 13.6562 17.7414 13.9688V15.5312C17.7414 15.8828 17.4289 16.1562 17.1164 16.1562H0.866406Z" fill="#434A54"/>
</svg>
