<svg width="31" height="31" viewBox="0 0 31 31" fill="none" xmlns="http://www.w3.org/2000/svg">
<path d="M29.2883 21.5508C29.757 21.7852 30.1086 22.3125 30.1086 22.8984C30.1086 22.957 30.1086 23.0742 30.1086 23.1914L28.7023 29.2852C28.5266 29.9297 27.9992 30.3398 27.3547 30.3398C12.2961 30.3398 0.167188 18.2109 0.167188 3.15234C0.167188 2.50781 0.577344 1.98047 1.22188 1.80469L7.31563 0.398438C7.43281 0.398438 7.55 0.339844 7.60859 0.339844C8.19453 0.339844 8.72188 0.691406 8.95625 1.21875L11.7688 7.78125C11.8273 7.95703 11.8859 8.13281 11.8859 8.30859C11.8859 8.77734 11.6516 9.1875 11.3586 9.42188L7.78438 12.3516C9.95234 16.9219 13.5852 20.5547 18.1555 22.7227L21.0852 19.1484C21.3195 18.8555 21.7297 18.6211 22.1398 18.6211C22.3742 18.6211 22.55 18.6797 22.7258 18.7383L29.2883 21.5508Z" fill="white"/>
</svg>
