<svg width="30" height="26" viewBox="0 0 30 26" fill="none" xmlns="http://www.w3.org/2000/svg">
<path d="M24.5623 10C26.2713 10 29.2498 11.416 29.2498 13.125C29.2498 14.8828 26.2713 16.25 24.5623 16.25H18.947L13.8201 25.2344C13.6736 25.4785 13.4295 25.625 13.1365 25.625H9.96267C9.42556 25.625 9.03494 25.1367 9.18142 24.6484L11.574 16.25H6.59353L4.44509 19.082C4.29861 19.2773 4.1033 19.375 3.85916 19.375H1.90603C1.36892 19.375 0.978297 18.9355 1.12478 18.4473L2.68728 13.125L1.12478 7.85156C0.978297 7.36328 1.36892 6.875 1.90603 6.875H3.85916C4.1033 6.875 4.29861 7.02148 4.44509 7.2168L6.59353 10H11.574L9.18142 1.65039C9.03494 1.16211 9.42556 0.625 9.96267 0.625H13.1365C13.4295 0.625 13.6736 0.820312 13.8201 1.06445L18.947 10H24.5623Z" fill="white"/>
</svg>
