<svg width="15" height="15" viewBox="0 0 15 15" fill="none" xmlns="http://www.w3.org/2000/svg">
<path d="M12.5234 7.33984L13.7812 8.57031C14.1641 8.92578 13.9727 9.55469 13.4805 9.69141L11.7852 10.1289L12.25 11.8242C12.3867 12.3164 11.9492 12.7539 11.457 12.6172L9.76172 12.1523L9.32422 13.8477C9.1875 14.3672 8.55859 14.5312 8.20312 14.1484L7 12.8906L5.76953 14.1484C5.41406 14.5039 4.78516 14.3672 4.64844 13.8477L4.21094 12.1523L2.51562 12.6172C2.02344 12.7539 1.58594 12.3164 1.72266 11.8242L2.1875 10.1289L0.492188 9.69141C0 9.55469 -0.191406 8.92578 0.191406 8.57031L1.44922 7.33984L0.191406 6.10938C-0.191406 5.75391 0 5.125 0.492188 5.01562L2.1875 4.57812L1.72266 2.88281C1.58594 2.39062 2.02344 1.92578 2.51562 2.0625L4.21094 2.55469L4.64844 0.832031C4.75781 0.339844 5.41406 0.175781 5.76953 0.558594L7 1.81641L8.20312 0.558594C8.55859 0.175781 9.21484 0.367188 9.32422 0.832031L9.76172 2.55469L11.457 2.0625C11.9492 1.92578 12.3867 2.39062 12.25 2.88281L11.7852 4.57812L13.4805 5.01562C13.9727 5.125 14.1641 5.75391 13.7812 6.10938L12.5234 7.33984Z" fill="#1BBC9B"/>
</svg>
