<svg width="21" height="21" viewBox="0 0 21 21" fill="none" xmlns="http://www.w3.org/2000/svg">
<path d="M10.6406 7C12.6719 7 14.3906 8.71875 14.3906 10.75C14.3906 12.8203 12.6719 14.5 10.6406 14.5C8.57031 14.5 6.89062 12.8203 6.89062 10.75C6.89062 8.71875 8.57031 7 10.6406 7ZM20.25 10.1641C20.7578 10.3984 20.7578 11.1406 20.25 11.375L16.5391 13.2109L17.8672 17.1562C18.0234 17.6641 17.5156 18.1719 17.0078 18.0156L13.0625 16.6875L11.2266 20.3984C10.9922 20.9062 10.25 20.9062 10.0156 20.3984L8.17969 16.6875L4.23438 18.0156C3.72656 18.1719 3.21875 17.6641 3.375 17.1562L4.70312 13.2109L0.992188 11.375C0.484375 11.1406 0.484375 10.3984 0.992188 10.1641L4.70312 8.32812L3.375 4.38281C3.21875 3.875 3.72656 3.36719 4.23438 3.52344L8.17969 4.85156L10.0156 1.14062C10.25 0.632812 10.9922 0.632812 11.2266 1.14062L13.0625 4.85156L17.0078 3.52344C17.5156 3.36719 18.0234 3.875 17.8672 4.38281L16.5391 8.32812L20.25 10.1641ZM14.1562 14.3047C16.1094 12.3516 16.1094 9.1875 14.1562 7.23438C12.2031 5.28125 9.03906 5.28125 7.08594 7.23438C5.13281 9.1875 5.13281 12.3516 7.08594 14.3047C9.03906 16.2578 12.2031 16.2578 14.1562 14.3047Z" fill="#1BBC9B"/>
</svg>
