<svg width="20" height="14" viewBox="0 0 20 14" fill="none" xmlns="http://www.w3.org/2000/svg">
<path d="M19.3398 2.64453C19.7617 4.12109 19.7617 7.28516 19.7617 7.28516C19.7617 7.28516 19.7617 10.4141 19.3398 11.9258C19.1289 12.7695 18.4609 13.4023 17.6523 13.6133C16.1406 14 10.1641 14 10.1641 14C10.1641 14 4.15234 14 2.64062 13.6133C1.83203 13.4023 1.16406 12.7695 0.953125 11.9258C0.53125 10.4141 0.53125 7.28516 0.53125 7.28516C0.53125 7.28516 0.53125 4.12109 0.953125 2.64453C1.16406 1.80078 1.83203 1.13281 2.64062 0.921875C4.15234 0.5 10.1641 0.5 10.1641 0.5C10.1641 0.5 16.1406 0.5 17.6523 0.921875C18.4609 1.13281 19.1289 1.80078 19.3398 2.64453ZM8.19531 10.1328L13.1875 7.28516L8.19531 4.4375V10.1328Z" fill="white"/>
</svg>
